<svg xmlns="http://www.w3.org/2000/svg" width="25.727" height="24.337" viewBox="0 0 25.727 24.337">
  <g id="Group_1243" data-name="Group 1243" transform="translate(319.377 -15.004)">
    <path id="Path_290" data-name="Path 290" d="M-302.475,15c5.387.012,9.153,4.048,8.8,8.809a8.141,8.141,0,0,1-2.463,5.295q-4.871,4.866-9.738,9.736a1.219,1.219,0,0,1-1.814.163,1.215,1.215,0,0,1,.146-1.815q4.866-4.871,9.734-9.74a5.841,5.841,0,0,0,.264-8.2,5.855,5.855,0,0,0-8.175-.461c-1.242,1.147-2.412,2.372-3.609,3.568q-3.326,3.32-6.643,6.648a3.368,3.368,0,0,0-.907,3.505,3.31,3.31,0,0,0,2.611,2.44,3.322,3.322,0,0,0,3.2-.892q4.586-4.547,9.136-9.129a1.175,1.175,0,0,0,.062-1.707,1.158,1.158,0,0,0-1.736.069q-2.815,2.8-5.618,5.612a3.375,3.375,0,0,1-.488.431,1.187,1.187,0,0,1-1.475-.16,1.174,1.174,0,0,1-.092-1.516,1.681,1.681,0,0,1,.167-.187c1.99-1.99,3.962-4,5.978-5.962a3.5,3.5,0,0,1,5.79,1.5,3.309,3.309,0,0,1-.832,3.479c-3.072,3.111-6.154,6.213-9.278,9.271a5.749,5.749,0,0,1-6.467,1.115,5.828,5.828,0,0,1-3.449-5.588,5.325,5.325,0,0,1,1.473-3.638c1.937-1.995,3.914-3.95,5.88-5.917,1.516-1.517,3.018-3.047,4.564-4.532A7.634,7.634,0,0,1-302.475,15Z" transform="translate(0)" fill="#fff"/>
  </g>
</svg>
