<svg xmlns="http://www.w3.org/2000/svg" width="31.525" height="31.5" viewBox="0 0 31.525 31.5">
  <path id="Path_581" data-name="Path 581" d="M-431.2-173.186c0,1.283-.012,2.472.014,3.659a.655.655,0,0,0,.311.446,2.838,2.838,0,0,1,1.486,2.068.632.632,0,0,0,.37.393c1.1.367,2.215.7,3.311,1.045,1.748-2.091,3.907-2.545,5.778-1.224a4.031,4.031,0,0,1,.852,5.8c.2.128.407.248.6.383a4.566,4.566,0,0,1,2.1,3.825c.01.369.007.738,0,1.107-.013.745-.344,1.077-1.1,1.078q-4.276.007-8.551,0c-.369,0-.739.009-1.107,0a.846.846,0,0,1-.9-.762c-.172-1.91.08-3.7,1.723-4.986.288-.226.607-.412.836-.565l-.958-2.939c-.941-.3-2.1-.666-3.268-1.011-.108-.032-.293.079-.4.173a2.762,2.762,0,0,1-4.061-.02.532.532,0,0,0-.4-.14c-1.152.338-2.3.7-3.258,1l-.925,2.942c.017.011.182.114.344.22a4.584,4.584,0,0,1,2.218,3.944c.008.389.013.78,0,1.169a.9.9,0,0,1-.953.974q-4.891.016-9.781,0a.837.837,0,0,1-.919-.74c-.188-1.934.076-3.736,1.746-5.032.287-.222.6-.406.9-.607-1.32-2.493-.949-4.641,1-5.9a4.043,4.043,0,0,1,5.636,1.316c1.127-.353,2.274-.7,3.412-1.082a.574.574,0,0,0,.294-.389,2.794,2.794,0,0,1,1.452-2.021.673.673,0,0,0,.336-.433c.027-1.206.015-2.413.015-3.693-1.255,0-2.459,0-3.663,0-.953,0-1.233-.289-1.258-1.241a5.092,5.092,0,0,1,.938-3.658,20.407,20.407,0,0,1,1.7-1.589,4.075,4.075,0,0,1-.574-3.725,3.83,3.83,0,0,1,1.591-2.048,4,4,0,0,1,4.978.474,4.075,4.075,0,0,1,.369,5.367,2.314,2.314,0,0,0,.266.209,4.542,4.542,0,0,1,2.409,3.952c.019.43.028.862,0,1.291a.916.916,0,0,1-1.028.965C-428.582-173.179-429.849-173.186-431.2-173.186Zm-6.853,16.711a2.775,2.775,0,0,0-2.552-3.039c-.941-.046-1.888-.044-2.829,0a2.651,2.651,0,0,0-2.508,3.04Zm11.859-.013h7.949a2.759,2.759,0,0,0-2.775-3.038q-1.2-.016-2.4,0A2.763,2.763,0,0,0-426.19-156.487Zm-1.988-18.575a2.7,2.7,0,0,0-2.6-3.038c-.9-.03-1.8-.031-2.7,0a2.7,2.7,0,0,0-2.587,3.037Zm-16,11.516a2.176,2.176,0,0,0,2.132,2.176,2.176,2.176,0,0,0,2.176-2.133,2.174,2.174,0,0,0-2.132-2.175A2.174,2.174,0,0,0-444.181-163.546Zm21.975-2.132a2.175,2.175,0,0,0-2.163,2.145,2.177,2.177,0,0,0,2.146,2.163,2.176,2.176,0,0,0,2.163-2.146A2.176,2.176,0,0,0-422.207-165.678Zm-7.771-16.426a2.147,2.147,0,0,0-2.143-2.155,2.149,2.149,0,0,0-2.145,2.153,2.152,2.152,0,0,0,2.144,2.155A2.149,2.149,0,0,0-429.978-182.1Zm-2.153,14.582a.924.924,0,0,0-.9.962.923.923,0,0,0,.915.883.925.925,0,0,0,.9-.962A.921.921,0,0,0-432.131-167.523Z" transform="translate(447.893 186.102)" fill="#fff"/>
</svg>
