<svg xmlns="http://www.w3.org/2000/svg" xmlns:xlink="http://www.w3.org/1999/xlink" width="117" height="42" viewBox="0 0 117 42">
  <defs>
    <clipPath id="clip-path">
      <circle id="Ellipse_88" data-name="Ellipse 88" cx="18" cy="18" r="18" transform="translate(-0.5)" fill="#111317"/>
    </clipPath>
  </defs>
  <g id="Group_1249" data-name="Group 1249" transform="translate(-192 -431)">
    <g id="Group_1251" data-name="Group 1251" transform="translate(193.5 432)">
      <g id="Ellipse_87" data-name="Ellipse 87" transform="translate(-0.5)" fill="#111317" stroke="#707070" stroke-width="1">
        <circle cx="20" cy="20" r="20" stroke="none"/>
        <circle cx="20" cy="20" r="20.5" fill="none"/>
      </g>
      <g id="Mask_Group_58" data-name="Mask Group 58" transform="translate(2 2)" clip-path="url(#clip-path)">
        <path id="Icon_awesome-user" data-name="Icon awesome-user" d="M10.205,11.663A5.832,5.832,0,1,0,4.374,5.832,5.831,5.831,0,0,0,10.205,11.663Zm4.082,1.458h-.761a7.931,7.931,0,0,1-6.642,0H6.123A6.125,6.125,0,0,0,0,19.244v8.375a2.187,2.187,0,0,0,2.187,2.187H18.224a2.187,2.187,0,0,0,2.187-2.187V19.244A6.125,6.125,0,0,0,14.287,13.121Z" transform="translate(8.295 11.116)" fill="#7d7d7d"/>
      </g>
    </g>
    <g id="Group_1071" data-name="Group 1071" transform="translate(218.5 432)">
      <g id="Ellipse_87-2" data-name="Ellipse 87" transform="translate(-0.5)" fill="#111317" stroke="#707070" stroke-width="1">
        <circle cx="20" cy="20" r="20" stroke="none"/>
        <circle cx="20" cy="20" r="20.5" fill="none"/>
      </g>
      <g id="Mask_Group_58-2" data-name="Mask Group 58" transform="translate(2 2)" clip-path="url(#clip-path)">
        <path id="Icon_awesome-user-2" data-name="Icon awesome-user" d="M10.205,11.663A5.832,5.832,0,1,0,4.374,5.832,5.831,5.831,0,0,0,10.205,11.663Zm4.082,1.458h-.761a7.931,7.931,0,0,1-6.642,0H6.123A6.125,6.125,0,0,0,0,19.244v8.375a2.187,2.187,0,0,0,2.187,2.187H18.224a2.187,2.187,0,0,0,2.187-2.187V19.244A6.125,6.125,0,0,0,14.287,13.121Z" transform="translate(8.295 11.116)" fill="#7d7d7d"/>
      </g>
    </g>
    <g id="Group_1248" data-name="Group 1248" transform="translate(244.5 432)">
      <g id="Ellipse_87-3" data-name="Ellipse 87" transform="translate(-0.5)" fill="#111317" stroke="#707070" stroke-width="1">
        <circle cx="20" cy="20" r="20" stroke="none"/>
        <circle cx="20" cy="20" r="20.5" fill="none"/>
      </g>
      <g id="Mask_Group_58-3" data-name="Mask Group 58" transform="translate(2 2)" clip-path="url(#clip-path)">
        <path id="Icon_awesome-user-3" data-name="Icon awesome-user" d="M10.205,11.663A5.832,5.832,0,1,0,4.374,5.832,5.831,5.831,0,0,0,10.205,11.663Zm4.082,1.458h-.761a7.931,7.931,0,0,1-6.642,0H6.123A6.125,6.125,0,0,0,0,19.244v8.375a2.187,2.187,0,0,0,2.187,2.187H18.224a2.187,2.187,0,0,0,2.187-2.187V19.244A6.125,6.125,0,0,0,14.287,13.121Z" transform="translate(8.295 11.116)" fill="#7d7d7d"/>
      </g>
    </g>
    <circle id="Ellipse_87-4" data-name="Ellipse 87" cx="20" cy="20" r="20" transform="translate(269 432)" fill="#fff"/>
    <text id="_99_" data-name="99+" transform="translate(274 458)" fill="#111317" font-size="16" font-family="Poppins-SemiBold, Poppins" font-weight="600" letter-spacing="-0.04em"><tspan x="0" y="0">99+</tspan></text>
  </g>
</svg>
