<svg xmlns="http://www.w3.org/2000/svg" width="25.868" height="25.826" viewBox="0 0 25.868 25.826">
  <path id="Path_268" data-name="Path 268" d="M399.635,437.521c-3.153,0-6.307-.051-9.458.018a3.361,3.361,0,0,1-3.466-3.455c.032-3.389.015-6.778,0-10.166a3.332,3.332,0,0,1,.987-2.462c2.7-2.713,5.378-5.448,8.12-8.117a5.339,5.339,0,0,1,7.71.05c2.68,2.636,5.317,5.315,7.977,7.971a3.507,3.507,0,0,1,1.06,2.633c-.021,3.338-.051,6.677.008,10.014a3.376,3.376,0,0,1-3.536,3.534C405.909,437.46,402.771,437.521,399.635,437.521Zm10.851-8.454c0-1.669.031-3.339-.022-5.007a1.966,1.966,0,0,0-.471-1.217q-3.922-4.015-7.918-7.958a3.24,3.24,0,0,0-4.893.037c-2.616,2.6-5.213,5.226-7.825,7.833a1.757,1.757,0,0,0-.547,1.307c0,3.322,0,6.643,0,9.965,0,.974.453,1.408,1.439,1.413,1.147.006,2.293-.016,3.439.01.462.011.628-.14.618-.607-.024-1.2-.006-2.394-.008-3.591a5.339,5.339,0,0,1,7.169-5.1,4.988,4.988,0,0,1,3.433,4.4c.126,1.44.1,2.894.1,4.342,0,.415.127.567.55.56,1.163-.021,2.327,0,3.49-.009,1,0,1.433-.449,1.435-1.466Q410.489,431.52,410.486,429.067Zm-10.872,6.374c.926,0,1.852-.015,2.777.007.4.009.524-.138.518-.531-.02-1.245.006-2.491-.019-3.736a3.849,3.849,0,0,0-.2-1.131,3.242,3.242,0,0,0-6.293,1.014c-.013,1.3.006,2.592-.013,3.888-.005.378.131.5.5.5C397.8,435.429,398.705,435.44,399.614,435.44Z" transform="translate(-386.711 -411.719)" fill="#fff"/>
</svg>
