<svg xmlns="http://www.w3.org/2000/svg" width="27.001" height="31.5" viewBox="0 0 27.001 31.5">
  <g id="Group_1846" data-name="Group 1846" transform="translate(-230.891 -649.666)">
    <path id="Path_579" data-name="Path 579" d="M257.892,665.454q0,6.01,0,12.02a3.389,3.389,0,0,1-3.655,3.69q-9.841,0-19.682,0a3.391,3.391,0,0,1-3.655-3.69c0-5.483.01-10.966-.009-16.449a3.848,3.848,0,0,1,1.19-2.89q3.666-3.641,7.308-7.305a3.776,3.776,0,0,1,2.829-1.165c4.007.019,8.013.006,12.02.008a3.389,3.389,0,0,1,3.654,3.69Q257.893,659.409,257.892,665.454Zm-24.746-4.536c0,5.667,0,11.217,0,16.767,0,.849.468,1.234,1.428,1.234q9.8,0,19.6,0c1.086,0,1.467-.385,1.467-1.48q0-12.014,0-24.028c0-1.123-.378-1.491-1.526-1.492q-5.62,0-11.241,0c-.227,0-.453.02-.735.033,0,1.773,0,3.5,0,5.229a3.4,3.4,0,0,1-3.748,3.735Zm1.757-2.249c1.329,0,2.63.021,3.931-.01a.989.989,0,0,0,1.035-.954c.055-1.338.018-2.68.018-4.03Z" fill="#fff"/>
    <path id="Path_580" data-name="Path 580" d="M292.641,749.61c.769-.787,1.534-1.577,2.31-2.357a2.584,2.584,0,0,1,.6-.474,1.059,1.059,0,0,1,1.445.268,1.018,1.018,0,0,1-.084,1.458c-.833.856-1.689,1.689-2.536,2.531-.681.677-1.357,1.359-2.044,2.03a1.173,1.173,0,0,1-1.938.017q-2.218-2.2-4.416-4.427a1.137,1.137,0,1,1,1.575-1.607c.439.422.868.855,1.292,1.292.407.42.8.851,1.312,1.392.036-.331.07-.5.07-.667,0-1.967,0-3.934,0-5.9,0-.883.421-1.4,1.12-1.4s1.122.524,1.124,1.4q0,3.185,0,6.371Z" transform="translate(-46.955 -79.146)" fill="#fff"/>
  </g>
</svg>
