<svg xmlns="http://www.w3.org/2000/svg" width="25.688" height="25.688" viewBox="0 0 25.688 25.688">
  <g id="Group_1241" data-name="Group 1241" transform="translate(-66.498 -437.836)">
    <path id="Path_284" data-name="Path 284" d="M73.87,530.893c-2.075,0-4.151.008-6.226,0-.894-.005-1.423-.774-.993-1.48a1.841,1.841,0,0,1,.82-.549,1.534,1.534,0,0,1,.6-.025c3.933,0,7.867-.006,11.8.007a.743.743,0,0,0,.847-.54,3.933,3.933,0,0,1,7.309.087.579.579,0,0,0,.648.454c.8-.026,1.607-.017,2.41,0a1.034,1.034,0,0,1,1.107,1.039,1.018,1.018,0,0,1-1.082,1.008q-1.255.026-2.51,0a.5.5,0,0,0-.545.381,3.93,3.93,0,0,1-7.379.039.57.57,0,0,0-.624-.421C77.988,530.9,75.929,530.894,73.87,530.893Zm8.58-1.056a1.9,1.9,0,1,0,1.9-1.882A1.934,1.934,0,0,0,82.45,529.837Z" transform="translate(0 -79.183)" fill="#fff"/>
    <path id="Path_285" data-name="Path 285" d="M84.9,442.866c-2.025,0-4.051.01-6.076-.008a.7.7,0,0,0-.8.531,3.932,3.932,0,0,1-7.311-.067.6.6,0,0,0-.692-.464c-.769.028-1.54.014-2.31.006a1.036,1.036,0,1,1,0-2.053c.77-.01,1.541-.022,2.31,0a.6.6,0,0,0,.694-.463,3.927,3.927,0,0,1,7.322-.018.639.639,0,0,0,.732.48c4.051-.011,8.1-.005,12.153-.009a1.17,1.17,0,0,1,1.042.363,1.029,1.029,0,0,1-.837,1.7q-2.938,0-5.875,0Zm-8.624-1.024a1.9,1.9,0,1,0-1.879,1.9A1.934,1.934,0,0,0,76.279,441.842Z" transform="translate(-0.035)" fill="#fff"/>
    <path id="Path_286" data-name="Path 286" d="M84.9,618.867c-2.059,0-4.118.006-6.177-.006a.585.585,0,0,0-.663.438,3.926,3.926,0,0,1-7.32.065.665.665,0,0,0-.768-.5c-.752.027-1.506.014-2.26.005a1.036,1.036,0,1,1,.006-2.053c.787-.01,1.574-.018,2.36,0a.545.545,0,0,0,.62-.42,3.929,3.929,0,0,1,7.325-.1.7.7,0,0,0,.8.524c4.034-.013,8.068-.006,12.1-.01a1.166,1.166,0,0,1,1.041.366,1.03,1.03,0,0,1-.844,1.693q-3.113-.006-6.227,0Zm-8.62-1.043a1.9,1.9,0,1,0-1.911,1.922A1.933,1.933,0,0,0,76.278,617.824Z" transform="translate(-0.034 -158.313)" fill="#fff"/>
  </g>
</svg>
