<svg xmlns="http://www.w3.org/2000/svg" width="25.094" height="31.5" viewBox="0 0 25.094 31.5">
  <g id="Group_1708" data-name="Group 1708" transform="translate(-680.437 -378.987)">
    <path id="Path_582" data-name="Path 582" d="M680.44,394.719q0-5.289,0-10.578a4.922,4.922,0,0,1,5.123-5.153q7.441,0,14.883,0a4.916,4.916,0,0,1,5.081,5.072q0,7.472,0,14.944a3.726,3.726,0,0,1-.01.492,1.227,1.227,0,0,1-2.442-.065c-.014-.183,0-.369,0-.553q0-7.319,0-14.637a2.514,2.514,0,0,0-2.813-2.8H685.683a2.5,2.5,0,0,0-2.785,2.762q0,10.517,0,21.033a2.5,2.5,0,0,0,2.771,2.776q7.349,0,14.7,0a2.48,2.48,0,0,0,2.7-2.536,1.193,1.193,0,0,1,1.226-1.189,1.205,1.205,0,0,1,1.23,1.253,4.906,4.906,0,0,1-4.672,4.917q-7.872.054-15.744,0a4.871,4.871,0,0,1-4.669-4.855C680.431,401.976,680.441,398.348,680.44,394.719Z" transform="translate(0 0)" fill="#fff"/>
    <path id="Path_583" data-name="Path 583" d="M789.266,436.833c.656,0,1.311-.009,1.967,0a1.218,1.218,0,0,1,.164,2.431q-2.148.071-4.3,0a1.179,1.179,0,0,1-1.131-1.287,1.217,1.217,0,0,1,1.272-1.147c.041,0,.082,0,.123,0Z" transform="translate(-92.549 -50.729)" fill="#fff"/>
    <path id="Path_584" data-name="Path 584" d="M789.214,559.534c-.656,0-1.311.01-1.967,0a1.209,1.209,0,0,1-1.279-1.137,1.175,1.175,0,0,1,1.122-1.294c1.432-.048,2.868-.047,4.3,0a1.218,1.218,0,0,1-.149,2.432C790.567,559.544,789.891,559.534,789.214,559.534Z" transform="translate(-92.551 -156.178)" fill="#fff"/>
    <path id="Path_585" data-name="Path 585" d="M789.159,499.433c-.635,0-1.271.008-1.906,0a1.227,1.227,0,1,1-.022-2.451q2-.017,4,0a1.225,1.225,0,1,1,.023,2.449C790.553,499.445,789.856,499.433,789.159,499.433Z" transform="translate(-92.533 -103.475)" fill="#fff"/>
    <path id="Path_586" data-name="Path 586" d="M727.815,551.693a6.079,6.079,0,0,1,.638-.8,1.219,1.219,0,0,1,1.711.029,1.206,1.206,0,0,1,.034,1.665c-.562.619-1.175,1.191-1.767,1.783a.384.384,0,0,1-.049.036,1.229,1.229,0,0,1-1.711-.17c-1.128-1.036-1.358-1.573-.964-2.25C726.069,551.365,726.673,551.25,727.815,551.693Z" transform="translate(-39.546 -150.472)" fill="#fff"/>
    <path id="Path_587" data-name="Path 587" d="M728.029,431.09a9.36,9.36,0,0,1,.721-.823,1.219,1.219,0,0,1,1.7,1.741,14.825,14.825,0,0,1-1.7,1.669c-.308.236-.974.426-1.2.259a6.746,6.746,0,0,1-1.634-1.727c-.142-.214.094-.886.359-1.105a2.471,2.471,0,0,1,1.236-.271C727.639,430.819,727.789,430.965,728.029,431.09Z" transform="translate(-39.845 -44.67)" fill="#fff"/>
    <path id="Path_588" data-name="Path 588" d="M727.8,491.348a7.1,7.1,0,0,1,.684-.815,1.219,1.219,0,0,1,1.708,1.74c-.543.582-1.106,1.148-1.69,1.688a1.163,1.163,0,0,1-1.745-.045c-.254-.237-.5-.485-.737-.736a1.187,1.187,0,0,1-.208-1.649,1.215,1.215,0,0,1,1.633-.339Z" transform="translate(-39.58 -97.527)" fill="#fff"/>
  </g>
</svg>
