<svg xmlns="http://www.w3.org/2000/svg" width="25.726" height="25.711" viewBox="0 0 25.726 25.711">
  <path id="Path_287" data-name="Path 287" d="M-425.393,462.817c0-.889.013-1.779,0-2.667a3.765,3.765,0,0,0-3.656-3.686c-1.828-.029-3.657-.02-5.486-.005-.385,0-.515-.094-.522-.5a8.617,8.617,0,0,1,1.532-5.362,8.862,8.862,0,0,1,5.533-3.465,16.225,16.225,0,0,1,1.638-.23,1.388,1.388,0,0,0,.978-.519,16.363,16.363,0,0,1,7.447-5.1,18.534,18.534,0,0,1,5.084-.883,3.2,3.2,0,0,1,3.511,3.339,16.717,16.717,0,0,1-1.319,6.452,15.61,15.61,0,0,1-4.44,6.062,2.026,2.026,0,0,0-.776,1.525,9.91,9.91,0,0,1-1.381,4.368,8.079,8.079,0,0,1-7.137,3.955c-1,.023-1,.01-1-1.01v-2.265Zm-2.714-8.379a6.028,6.028,0,0,1,4.753,4.709c.243-.114.443-.193.629-.3,1.134-.646,2.3-1.248,3.39-1.959a18.466,18.466,0,0,0,5.921-5.852,15.043,15.043,0,0,0,2.009-7.281,1.131,1.131,0,0,0-1.282-1.266c-.3,0-.6.038-.9.062a14.1,14.1,0,0,0-8.415,3.4,24.061,24.061,0,0,0-4.926,6.245C-427.342,452.9-427.692,453.642-428.107,454.438Zm9.932,4.248c-.243.131-.4.214-.559.3-1.1.608-2.179,1.246-3.295,1.816-1.246.636-1.259.61-1.259,2.035q0,.2,0,.4c0,.726.037.764.73.564A6.13,6.13,0,0,0-418.175,458.686Zm-9.517-9.368-.093-.138c-.625.249-1.268.458-1.87.754a5.609,5.609,0,0,0-3.121,3.948c-.078.337,0,.466.349.456.518-.015,1.039-.028,1.556,0a.7.7,0,0,0,.732-.46c.751-1.417,1.528-2.819,2.294-4.227C-427.788,449.545-427.744,449.429-427.693,449.318Z" transform="translate(435.061 -440.386)" fill="#fff"/>
</svg>
