<svg id="Group_1240" data-name="Group 1240" xmlns="http://www.w3.org/2000/svg" width="25.726" height="25.771" viewBox="0 0 25.726 25.771">
  <path id="Path_280" data-name="Path 280" d="M545.985,36.579c0,1.574.067,3.153-.018,4.722a4.95,4.95,0,0,1-2.5,4.008,5.331,5.331,0,0,1-2.963.793c-2.415,0-4.831.028-7.245-.007a12.876,12.876,0,0,1-6.737-23.859,12.343,12.343,0,0,1,9.279-1.595,12.616,12.616,0,0,1,9.449,8.047,11.557,11.557,0,0,1,.822,4.318c.006,1.191,0,2.382,0,3.573Zm-9.347,7.365v.064c1.342,0,2.684,0,4.026,0a3.238,3.238,0,0,0,2.052-.7,3.36,3.36,0,0,0,1.256-2.831c.008-2.516.03-5.033-.013-7.548a10.454,10.454,0,0,0-.336-2.479,10.767,10.767,0,1,0-20.671,6.018,10.439,10.439,0,0,0,9.113,7.442A35.329,35.329,0,0,0,536.638,43.945Z" transform="translate(-520.345 -20.341)" fill="#fff"/>
  <path id="Path_281" data-name="Path 281" d="M600.475,182.643c-1.392,0-2.784,0-4.177,0a1.019,1.019,0,0,1-1.153-1.035,1.04,1.04,0,0,1,1.151-1.053q4.176-.009,8.353,0a1.04,1.04,0,0,1,1.153,1.052,1.019,1.019,0,0,1-1.151,1.036C603.26,182.646,601.867,182.643,600.475,182.643Z" transform="translate(-587.616 -164.421)" fill="#fff"/>
  <path id="Path_282" data-name="Path 282" d="M600.472,140.126c-1.392,0-2.784.008-4.175,0-.738-.006-1.152-.4-1.152-1.037a.981.981,0,0,1,.9-1.02,3.257,3.257,0,0,1,.4-.018c2.683,0,5.366-.012,8.049.013a1.848,1.848,0,0,1,1.01.316.9.9,0,0,1,.223,1.1.971.971,0,0,1-.984.643c-1.425,0-2.851,0-4.276,0Z" transform="translate(-587.615 -126.196)" fill="#fff"/>
  <path id="Path_283" data-name="Path 283" d="M598.34,95.431c.7,0,1.406-.007,2.108,0a.986.986,0,0,1,1.055.972,1.012,1.012,0,0,1-.986,1.1q-2.183.04-4.366,0a1.041,1.041,0,1,1,.081-2.081C596.935,95.425,597.638,95.431,598.34,95.431Z" transform="translate(-587.615 -87.869)" fill="#fff"/>
</svg>
