<svg xmlns="http://www.w3.org/2000/svg" width="31.5" height="31.5" viewBox="0 0 31.5 31.5">
  <g id="Group_2048" data-name="Group 2048" transform="translate(-257.973 -270.189)">
    <path id="Path_574" data-name="Path 574" d="M273.67,301.69a15.75,15.75,0,1,1,15.8-15.636A15.774,15.774,0,0,1,273.67,301.69Zm.058-28.336a12.586,12.586,0,1,0,12.581,12.576A12.583,12.583,0,0,0,273.728,273.354Z" transform="translate(0 -0.001)" fill="#fff"/>
    <path id="Path_575" data-name="Path 575" d="M338.2,334.685c-1.047,2.438-2.03,4.726-3.011,7.015-.507,1.183-1,2.372-1.529,3.545a1.136,1.136,0,0,1-.516.544c-3.41,1.481-6.83,2.94-10.248,4.4-.073.031-.152.045-.349.1.091-.256.145-.436.218-.607,1.41-3.285,2.816-6.572,4.244-9.849a1.292,1.292,0,0,1,.576-.639c3.352-1.461,6.716-2.894,10.078-4.332C337.79,334.813,337.922,334.779,338.2,334.685Zm-6.266,7.812a1.585,1.585,0,1,0-1.614,1.586A1.632,1.632,0,0,0,331.938,342.5Z" transform="translate(-56.63 -56.559)" fill="#fff"/>
  </g>
</svg>
