<svg xmlns="http://www.w3.org/2000/svg" width="24.966" height="24.922" viewBox="0 0 24.966 24.922">
  <path id="Icon_feather-phone-call" data-name="Icon feather-phone-call" d="M17.3,5.869a5.462,5.462,0,0,1,4.315,4.315M17.3,1.5a9.831,9.831,0,0,1,8.684,8.673M24.892,18.89v3.277a2.185,2.185,0,0,1-2.381,2.185A21.617,21.617,0,0,1,13.084,21,21.3,21.3,0,0,1,6.53,14.444a21.617,21.617,0,0,1-3.353-9.47A2.185,2.185,0,0,1,5.35,2.592H8.627a2.185,2.185,0,0,1,2.185,1.879,14.025,14.025,0,0,0,.765,3.069,2.185,2.185,0,0,1-.492,2.3L9.7,11.232a17.477,17.477,0,0,0,6.554,6.554L17.639,16.4a2.185,2.185,0,0,1,2.3-.492,14.025,14.025,0,0,0,3.069.765A2.185,2.185,0,0,1,24.892,18.89Z" transform="translate(-0.396 27.089) rotate(-90)" fill="none" stroke="#fff" stroke-linecap="round" stroke-linejoin="round" stroke-width="2"/>
</svg>
