<svg xmlns="http://www.w3.org/2000/svg" width="31.548" height="31.5" viewBox="0 0 31.548 31.5">
  <g id="Group_1705" data-name="Group 1705" transform="translate(367.973 -831.236)">
    <path id="Path_576" data-name="Path 576" d="M-343.027,852.8c1.323.926,2.661,1.833,3.963,2.788.609.447,1.146.991,1.721,1.486a2.755,2.755,0,0,1,.235,3.873,3.879,3.879,0,0,1-3.007,1.788,2.5,2.5,0,0,1-1.779-.7,27.334,27.334,0,0,1-3.753-4.857c-.227-.34-.459-.676-.722-1.063a13.647,13.647,0,0,1-12.544,1.654A13.189,13.189,0,0,1-366,851.955a13.659,13.659,0,0,1,2.734-17.378,13.807,13.807,0,0,1,17.209-.645A13.87,13.87,0,0,1-343.027,852.8Zm-11.251,2.2a10.048,10.048,0,0,0,10.1-10.112,10.084,10.084,0,0,0-10.064-10.108,10.127,10.127,0,0,0-10.153,10.1A10.088,10.088,0,0,0-354.279,855Z" transform="translate(0 0)" fill="#fff"/>
    <path id="Path_577" data-name="Path 577" d="M-304.019,961.024c1.393,0,2.788-.037,4.18.011a2.479,2.479,0,0,1,2.469,2.342,1.226,1.226,0,0,1-.25.77,8.432,8.432,0,0,1-12.517.28,1.488,1.488,0,0,1-.33-1.773,2.49,2.49,0,0,1,2.391-1.623c1.352-.037,2.7-.009,4.057-.009Z" transform="translate(-50.287 -113.795)" fill="#fff"/>
    <path id="Path_578" data-name="Path 578" d="M-285.231,895.13a3.972,3.972,0,0,1-4.017-4.01,4.021,4.021,0,0,1,3.968-4.02,4.073,4.073,0,0,1,4.07,4A4.026,4.026,0,0,1-285.231,895.13Z" transform="translate(-69.031 -48.986)" fill="#fff"/>
  </g>
</svg>
