<svg xmlns="http://www.w3.org/2000/svg" width="9.958" height="8.851" viewBox="0 0 9.958 8.851">
  <path id="Icon_metro-users" data-name="Icon metro-users" d="M9.21,11.8v-.456a2.471,2.471,0,0,0,1.106-2.056c0-1.375,0-2.489-1.66-2.489S7,7.917,7,9.292A2.471,2.471,0,0,0,8.1,11.348V11.8c-1.877.153-3.319,1.075-3.319,2.19h7.745c0-1.115-1.443-2.037-3.319-2.19Zm-3.81.214a5.256,5.256,0,0,1,1.727-.7,3.121,3.121,0,0,1-.35-.51,3.168,3.168,0,0,1-.4-1.52,4.912,4.912,0,0,1,.265-2.021A1.8,1.8,0,0,1,8.015,6.238c-.146-.661-.535-1.1-1.572-1.1-1.66,0-1.66,1.115-1.66,2.489A2.471,2.471,0,0,0,5.891,9.688v.456c-1.877.153-3.319,1.075-3.319,2.19H4.983A3.543,3.543,0,0,1,5.4,12.017Z" transform="translate(-2.571 -5.143)" fill="#fbfaff" opacity="0.3"/>
</svg>
