<svg xmlns="http://www.w3.org/2000/svg" width="24.28" height="24.28" viewBox="0 0 24.28 24.28">
  <g id="Icon_feather-settings" data-name="Icon feather-settings" transform="translate(1 1)">
    <path id="Path_254" data-name="Path 254" d="M19.576,16.538A3.038,3.038,0,1,1,16.538,13.5,3.038,3.038,0,0,1,19.576,16.538Z" transform="translate(-5.398 -5.398)" fill="none" stroke="#fff" stroke-linecap="round" stroke-linejoin="round" stroke-width="2"/>
    <path id="Path_255" data-name="Path 255" d="M20.134,15.678a1.671,1.671,0,0,0,.334,1.843l.061.061a2.027,2.027,0,1,1-2.866,2.866l-.061-.061a1.685,1.685,0,0,0-2.856,1.195v.172a2.025,2.025,0,0,1-4.051,0v-.091A1.671,1.671,0,0,0,9.6,20.134a1.671,1.671,0,0,0-1.843.334l-.061.061a2.027,2.027,0,1,1-2.866-2.866l.061-.061a1.685,1.685,0,0,0-1.2-2.856H3.525a2.025,2.025,0,1,1,0-4.051h.091A1.671,1.671,0,0,0,5.146,9.6a1.671,1.671,0,0,0-.334-1.843L4.751,7.7A2.027,2.027,0,1,1,7.617,4.832l.061.061a1.671,1.671,0,0,0,1.843.334H9.6A1.671,1.671,0,0,0,10.614,3.7V3.525a2.025,2.025,0,0,1,4.051,0v.091a1.685,1.685,0,0,0,2.856,1.195l.061-.061a2.027,2.027,0,1,1,2.866,2.866l-.061.061a1.671,1.671,0,0,0-.334,1.843V9.6a1.671,1.671,0,0,0,1.529,1.013h.172a2.025,2.025,0,1,1,0,4.051h-.091a1.671,1.671,0,0,0-1.529,1.013Z" transform="translate(-1.5 -1.5)" fill="none" stroke="#fff" stroke-linecap="round" stroke-linejoin="round" stroke-width="2"/>
  </g>
</svg>
