<svg id="Group_1238" data-name="Group 1238" xmlns="http://www.w3.org/2000/svg" width="25.744" height="25.688" viewBox="0 0 25.744 25.688">
  <path id="Path_271" data-name="Path 271" d="M273.682,767c.183.415.36.822.54,1.227.619,1.392,1.322,2.753,1.84,4.181a3.042,3.042,0,0,1-2.52,4.09,3.224,3.224,0,0,1-3.463-1.758c-1.128-2.411-2.193-4.852-3.283-7.28a7.328,7.328,0,0,0-1.311-2.164,3.589,3.589,0,0,1-.862-1.873,14.238,14.238,0,0,1-.082-3.357,4.25,4.25,0,0,1,4.54-3.865c2.7-.013,5.4.037,8.1-.049a4.649,4.649,0,0,0,3.757-1.835,4.118,4.118,0,0,0,.733-2.156c.085-.886.478-1.336,1.089-1.308.643.03,1.022.55,1.022,1.43q0,9.312,0,18.624a2.049,2.049,0,0,1-.094.64.983.983,0,0,1-.994.7,1.025,1.025,0,0,1-.964-.811c-.086-.46-.094-.938-.209-1.389a3.806,3.806,0,0,0-2.2-2.534A11.7,11.7,0,0,0,273.682,767Zm7.971-10.292a1.015,1.015,0,0,0-.219.049c-.174.1-.344.207-.513.316a6.863,6.863,0,0,1-3.68,1.174c-2.649.028-5.3.026-7.948.041a6.91,6.91,0,0,0-.9.064,2.038,2.038,0,0,0-1.713,1.615,17.051,17.051,0,0,0-.1,2.253,2.268,2.268,0,0,0,2.583,2.6q3.471,0,6.942,0a8.562,8.562,0,0,1,5.217,1.5,1.392,1.392,0,0,0,.338.12Zm-12.768,10.2c.1.277.153.45.226.615q1.2,2.681,2.4,5.359a7.911,7.911,0,0,0,.57,1.114,1.2,1.2,0,0,0,1.576.3,1.032,1.032,0,0,0,.411-1.356q-1.293-2.885-2.629-5.749a.522.522,0,0,0-.358-.273C270.382,766.9,269.681,766.912,268.884,766.912Z" transform="translate(-264.476 -750.851)" fill="#fff"/>
  <path id="Path_272" data-name="Path 272" d="M482.486,794.887c-.1.151-.218.52-.467.67a24.206,24.206,0,0,1-2.32,1.2,1.027,1.027,0,0,1-1.3-.446,1,1,0,0,1,.377-1.4c.73-.408,1.475-.8,2.239-1.136A1.077,1.077,0,0,1,482.486,794.887Z" transform="translate(-456.741 -789.376)" fill="#fff"/>
  <path id="Path_273" data-name="Path 273" d="M481.49,892.795a2.09,2.09,0,0,1-.486-.1c-.739-.347-1.48-.695-2.2-1.078a1.031,1.031,0,0,1-.5-1.2.943.943,0,0,1,1.325-.68,25.652,25.652,0,0,1,2.37,1.187.914.914,0,0,1,.37,1.226,3.55,3.55,0,0,1-.769.739Z" transform="translate(-456.739 -875.675)" fill="#fff"/>
  <path id="Path_274" data-name="Path 274" d="M480.337,849.195c-.368,0-.737.012-1.1,0a1.018,1.018,0,0,1-.987-.951.89.89,0,0,1,.8-1.036,15.845,15.845,0,0,1,2.548-.011.892.892,0,0,1,.839,1.05,1.01,1.01,0,0,1-1.036.951c-.351.011-.7,0-1.055,0Z" transform="translate(-456.721 -837.453)" fill="#fff"/>
</svg>
