<svg id="Group_1239" data-name="Group 1239" xmlns="http://www.w3.org/2000/svg" width="25.743" height="25.725" viewBox="0 0 25.743 25.725">
  <path id="Path_275" data-name="Path 275" d="M102.01,30.046q0-5.261,0-10.521a1.181,1.181,0,0,1,.522-1.17,1.02,1.02,0,0,1,1.567.838c.012.2.007.4.007.6q0,10.219,0,20.438c0,1.24.348,1.594,1.569,1.594q10.322,0,20.644,0a2.666,2.666,0,0,1,.745.065,1.042,1.042,0,0,1,.682,1.06,1.086,1.086,0,0,1-.955.956,4.293,4.293,0,0,1-.5.011H105.643a3.294,3.294,0,0,1-3.633-3.608Q102.009,35.18,102.01,30.046Z" transform="translate(-102.009 -18.2)" fill="#fff"/>
  <path id="Path_276" data-name="Path 276" d="M208.915,89.518q0-3.12,0-6.24c0-.766.427-1.264,1.059-1.249a1.1,1.1,0,0,1,1.032,1.243q0,6.265,0,12.53a1.1,1.1,0,0,1-.619,1.112.889.889,0,0,1-1.111-.168,1.527,1.527,0,0,1-.349-.888C208.9,93.745,208.915,91.631,208.915,89.518Z" transform="translate(-198.15 -75.604)" fill="#fff"/>
  <path id="Path_277" data-name="Path 277" d="M296.181,89.568q0,3.12,0,6.24c0,.762-.386,1.2-1.037,1.2s-1.053-.457-1.053-1.2q0-6.29,0-12.58a1.084,1.084,0,0,1,1.079-1.194,1.072,1.072,0,0,1,1.011,1.2Q296.184,86.4,296.181,89.568Z" transform="translate(-274.751 -75.606)" fill="#fff"/>
  <path id="Path_278" data-name="Path 278" d="M168.108,140.439c0,1.206,0,2.412,0,3.617a1.016,1.016,0,0,1-1,1.138,1.032,1.032,0,0,1-1.091-1.11q-.013-3.693,0-7.386a1.03,1.03,0,0,1,1.063-1.088,1,1,0,0,1,1.023,1.11C168.112,137.961,168.108,139.2,168.108,140.439Z" transform="translate(-159.569 -123.792)" fill="#fff"/>
  <path id="Path_279" data-name="Path 279" d="M253.621,140.378c0,1.208.011,2.416,0,3.624a.994.994,0,0,1-.986,1.1.981.981,0,0,1-1.076-1c-.028-.653-.012-1.308-.012-1.963q0-2.768,0-5.536a.977.977,0,0,1,.717-1.032.939.939,0,0,1,1.153.38,1.673,1.673,0,0,1,.2.807c.02,1.208.009,2.416.009,3.624Z" transform="translate(-236.485 -123.7)" fill="#fff"/>
</svg>
