<svg xmlns="http://www.w3.org/2000/svg" width="14.438" height="14.438" viewBox="0 0 14.438 14.438">
  <path id="Icon_awesome-sync-alt" data-name="Icon awesome-sync-alt" d="M11.121,4.209A4.891,4.891,0,0,0,3.038,6.583.35.35,0,0,1,2.7,6.85H1.031a.349.349,0,0,1-.344-.413,7.22,7.22,0,0,1,12.08-3.875l1.04-1.04A.7.7,0,0,1,15,2.016v3.9a.7.7,0,0,1-.7.7H10.4a.7.7,0,0,1-.494-1.193ZM1.261,8.946h3.9a.7.7,0,0,1,.494,1.193L4.442,11.353a4.891,4.891,0,0,0,8.082-2.374.35.35,0,0,1,.339-.266h1.668a.349.349,0,0,1,.344.413A7.22,7.22,0,0,1,2.795,13l-1.04,1.04a.7.7,0,0,1-1.193-.494v-3.9A.7.7,0,0,1,1.261,8.946Z" transform="translate(-0.563 -0.563)" fill="#f1f1f1"/>
</svg>
